<svg width="500" height="500" viewBox="0 0 500 500" fill="none" xmlns="http://www.w3.org/2000/svg">
<rect width="500" height="500" fill="#2B3035"/>
<path d="M122.75 294.5H120.25V159.5H122.75V226H177L205.75 159.5H208.5L179.75 226H190C200.167 226 207.75 227.917 212.75 231.75C217.75 235.583 220.25 241.833 220.25 250.5V294.5H217.75V250.5C217.75 242.5 215.417 236.833 210.75 233.5C206.083 230.167 199.167 228.5 190 228.5H122.75V294.5ZM140.75 317C143.917 317 146.167 316.333 147.5 315C149 313.5 149.75 311.167 149.75 308V250.75H182.75C185.417 250.75 187.417 251.5 188.75 253C190.083 254.5 190.75 256.583 190.75 259.25V308C190.75 311.167 191.417 313.5 192.75 315C194.25 316.333 196.583 317 199.75 317H238.25C241.417 317 243.667 316.333 245 315C246.5 313.5 247.25 311.167 247.25 308V237.5C247.25 227.5 244.417 219.5 238.75 213.5C233.25 207.333 225.833 204 216.5 203.5L242 145.25C243.167 142.583 243.25 140.583 242.25 139.25C241.25 137.75 239.333 137 236.5 137H198C194.833 137 192.25 137.667 190.25 139C188.25 140.167 186.667 142.25 185.5 145.25L159.75 203.5H149.75V146C149.75 142.833 149 140.583 147.5 139.25C146.167 137.75 143.917 137 140.75 137H102C98.8333 137 96.5 137.75 95 139.25C93.6667 140.583 93 142.833 93 146V308C93 311.167 93.6667 313.5 95 315C96.5 316.333 98.8333 317 102 317H140.75ZM148.75 317.25L116.25 344.25C115.583 344.917 114.5 345.5 113 346C111.667 346.5 110.167 346.75 108.5 346.75H69.75C65.75 346.75 62.8333 345.833 61 344C59.1667 342.167 58.25 339.25 58.25 335.25V173.25C58.25 171.083 58.5 169.25 59 167.75C59.6667 166.25 60.5833 165 61.75 164L94 136.75C94.8333 136.083 95.9167 135.583 97.25 135.25C98.75 134.75 100.333 134.5 102 134.5H140.75C144.75 134.5 147.667 135.417 149.5 137.25C151.333 139.083 152.25 142 152.25 146V168.75C152.75 168.083 153.25 167.417 153.75 166.75C154.25 165.917 154.833 165.25 155.5 164.75L187.75 137.5C188.917 136.5 190.333 135.75 192 135.25C193.833 134.75 195.833 134.5 198 134.5H236.5C240.667 134.5 243.417 135.583 244.75 137.75C246.083 139.75 245.917 142.583 244.25 146.25L220.25 201.25C229.25 202.417 236.417 206.25 241.75 212.75C247.083 219.25 249.75 227.5 249.75 237.5V308C249.75 310.167 249.417 312 248.75 313.5C248.25 315 247.417 316.25 246.25 317.25L213.75 344.25C213.083 344.917 212 345.5 210.5 346C209.167 346.5 207.667 346.75 206 346.75H167.5C163.5 346.75 160.583 345.833 158.75 344C156.917 342.167 156 339.25 156 335.25V286.5C156 284.833 155.667 283.5 155 282.5C154.333 281.5 153.417 280.917 152.25 280.75V308C152.25 310.167 151.917 312 151.25 313.5C150.75 315 149.917 316.25 148.75 317.25ZM319.926 346.75H281.176C277.176 346.75 274.259 345.833 272.426 344C270.592 342.167 269.676 339.25 269.676 335.25V173.25C269.676 171.083 269.926 169.25 270.426 167.75C271.092 166.25 272.009 165 273.176 164L305.426 136.75C306.259 136.083 307.342 135.583 308.676 135.25C310.176 134.75 311.759 134.5 313.426 134.5H389.926C401.759 134.5 411.676 135.75 419.676 138.25C427.676 140.75 434.009 144.25 438.676 148.75C443.342 153.25 446.592 158.667 448.426 165C450.426 171.333 451.426 178.25 451.426 185.75V217.75C451.426 225.75 450.259 233.083 447.926 239.75C445.759 246.25 441.926 251.833 436.426 256.5L403.926 283.5C399.759 287 394.342 289.917 387.676 292.25C381.176 294.417 373.176 295.667 363.676 296V308C363.676 310.167 363.342 312 362.676 313.5C362.176 315 361.342 316.25 360.176 317.25L327.676 344.25C327.009 344.917 325.926 345.5 324.426 346C323.092 346.5 321.592 346.75 319.926 346.75ZM352.176 317C355.342 317 357.592 316.333 358.926 315C360.426 313.5 361.176 311.167 361.176 308V266.5H389.926C412.592 266.5 428.092 262 436.426 253C444.759 244 448.926 232.25 448.926 217.75V185.75C448.926 171.25 444.759 159.5 436.426 150.5C428.092 141.5 412.592 137 389.926 137H313.426C310.259 137 307.926 137.75 306.426 139.25C305.092 140.583 304.426 142.833 304.426 146V308C304.426 311.167 305.092 313.5 306.426 315C307.926 316.333 310.259 317 313.426 317H352.176ZM386.426 245.25H334.926V294.5H332.426V159.5H386.426C394.259 159.5 400.592 160.417 405.426 162.25C410.426 163.917 414.259 166.25 416.926 169.25C419.592 172.25 421.426 175.833 422.426 180C423.426 184.167 423.926 188.667 423.926 193.5V212C423.926 216.833 423.426 221.333 422.426 225.5C421.426 229.5 419.592 233 416.926 236C414.259 238.833 410.426 241.083 405.426 242.75C400.592 244.417 394.259 245.25 386.426 245.25ZM334.926 242.75H386.426C393.759 242.75 399.676 242 404.176 240.5C408.842 239 412.426 236.917 414.926 234.25C417.426 231.417 419.092 228.167 419.926 224.5C420.926 220.667 421.426 216.5 421.426 212V193.5C421.426 189 420.926 184.833 419.926 181C419.092 177.167 417.426 173.833 414.926 171C412.426 168.167 408.842 166 404.176 164.5C399.676 162.833 393.759 162 386.426 162H334.926V242.75ZM360.676 183.75H383.176C388.009 183.75 391.176 185 392.676 187.5C394.176 190 394.926 192.833 394.926 196V209.25C394.926 212.417 394.176 215.25 392.676 217.75C391.176 220.25 388.009 221.5 383.176 221.5H360.676V183.75Z" fill="#838383"/>
</svg>
